<svg width="28" height="28" viewBox="0 0 28 28" fill="none" xmlns="http://www.w3.org/2000/svg">
<g clip-path="url(#clip0)">
<path d="M26.4944 2.10833e-06H1.53105C1.09076 -0.000830721 0.687119 0.24513 0.485853 0.636836C0.28181 1.03382 0.317622 1.51186 0.578296 1.87442L9.72383 14.7577C9.72689 14.7621 9.73022 14.7663 9.73327 14.7707C10.0656 15.2193 10.2452 15.7626 10.2463 16.3212V26.8248C10.2444 27.136 10.3665 27.4347 10.5858 27.6554C10.8051 27.8761 11.1033 27.9999 11.4142 27.9999C11.5724 27.9999 11.7287 27.9682 11.8747 27.9077L17.0138 25.9481C17.4744 25.8076 17.78 25.3731 17.78 24.8499V16.3212C17.7809 15.7629 17.9608 15.2193 18.2928 14.7707C18.2958 14.7663 18.2992 14.7621 18.3022 14.7577L27.4475 1.87386C27.7082 1.51158 27.744 1.03382 27.5399 0.636836C27.3387 0.24513 26.935 -0.000830721 26.4944 2.10833e-06ZM17.1468 13.9287C16.636 14.6219 16.3598 15.46 16.3581 16.3212V24.6772L11.6677 26.4655V16.3212C11.666 15.46 11.3898 14.6219 10.8787 13.9287L1.99993 1.42136H26.0258L17.1468 13.9287Z" fill="black"/>
</g>
<defs>
<clipPath id="clip0">
<rect width="28" height="28" fill="white"/>
</clipPath>
</defs>
</svg>
